<svg width="142" height="64" viewBox="0 0 142 64" fill="none" xmlns="http://www.w3.org/2000/svg">
<path fill-rule="evenodd" clip-rule="evenodd" d="M25.4933 63.709C27.4774 64.1063 28.35 64.0966 28.8891 63.6716C29.8293 62.9314 30.0697 60.3774 29.4786 57.405C28.8566 54.2813 29.199 21.7932 29.9184 15.6779C30.3128 12.3186 30.5102 8.79058 30.491 5.43129L30.4627 0.308451L27.9022 0.0671781C25.4451 -0.163602 22.9038 0.209396 21.2442 1.04536C20.6165 1.36137 20.3929 3.37278 20.3543 9.04758C20.336 11.7001 20.1877 14.7894 20.0247 15.9136C19.8299 17.2485 19.8299 20.1207 20.0247 24.201C20.367 31.3861 20.5034 57.4945 20.2008 57.9895C19.2558 59.5092 21.4688 63.8597 23.057 63.6052C23.6453 63.5113 24.7421 63.5577 25.4933 63.709ZM28.2242 3.47212C28.2242 4.05993 27.9021 4.25733 27.5377 3.89575C27.2938 3.65347 27.6117 2.86989 27.953 2.86987C28.1025 2.86987 28.2242 3.14083 28.2242 3.47212ZM27.1441 60.8483C26.9146 61.7552 25.9713 61.9096 25.0196 61.1953C24.4497 60.7663 24.4539 60.7513 25.1655 60.7427C25.5696 60.7368 26.151 60.5087 26.4576 60.233C27.1548 59.6058 27.4025 59.8276 27.1441 60.8483Z" fill="white"/>
<path fill-rule="evenodd" clip-rule="evenodd" d="M107.586 62.786C109.694 63.2886 112.482 63.2108 113.063 62.6345C113.491 62.2094 113.542 61.7946 113.36 60.1479C113.242 59.061 113.097 49.017 113.038 37.8292C112.98 26.641 112.85 16.2925 112.75 14.8316C112.594 12.5612 112.685 11.7231 113.375 9.03916C114.231 5.70873 114.218 3.58367 113.337 2.85771C113.095 2.65862 112.896 2.26119 112.896 1.97585C112.896 0.842069 111.976 0.506289 108.583 0.404773C103.849 0.263047 104.159 -0.53627 103.958 12.3627C103.894 16.5072 103.694 21.0501 103.516 22.4588C103.153 25.3115 103.129 35.6268 103.451 50.6372C103.687 61.6774 103.788 62.2729 105.461 62.4175C105.962 62.4606 106.917 62.627 107.586 62.786ZM107.741 3.99955C107.735 4.54915 107.301 4.46124 106.685 3.7854C105.984 3.01548 106.291 2.26669 107.308 2.26669C107.993 2.26669 108.084 2.36724 107.928 2.94468C107.827 3.31792 107.744 3.79257 107.741 3.99955ZM111.985 4.43627C111.985 5.95792 111.723 6.26138 111.223 5.31813C111.058 5.0067 110.679 4.32483 110.38 3.80223C109.789 2.76934 109.903 2.26675 110.729 2.26669C111.609 2.26669 111.985 2.91673 111.985 4.43627ZM105.565 43.8563C105.425 43.8563 105.284 41.6517 105.253 38.9589C105.221 36.2652 105.173 32.5795 105.144 30.7678C105.051 24.8652 105.645 22.8336 106.026 27.7518C106.278 31.0062 105.91 43.8471 105.565 43.8563ZM107.476 44.4586C107.458 43.0198 107.533 42.6377 107.755 43.0166C107.95 43.3479 107.959 44.048 107.78 44.9748L107.502 46.4178L107.476 44.4586ZM105.895 46.1924C105.917 47.2101 105.779 47.4408 105.536 46.7946C105.457 46.5878 105.5 46.1469 105.633 45.8146C105.828 45.3245 105.878 45.3948 105.895 46.1924ZM105.613 50.6372C105.44 50.7435 105.309 50.4841 105.309 50.0341C105.309 49.585 105.44 49.3255 105.613 49.4318C105.78 49.5343 105.916 49.8053 105.916 50.0341C105.916 50.2638 105.78 50.5347 105.613 50.6372ZM111.379 59.8561C111.379 61.3432 110.714 61.5894 108.496 60.9259C107.129 60.5171 106.892 59.797 108.038 59.5279C108.454 59.4312 108.932 59.0857 109.101 58.761C109.677 57.6512 111.379 58.4696 111.379 59.8561Z" fill="white"/>
<path fill-rule="evenodd" clip-rule="evenodd" d="M91.5011 63.0834C94.0726 63.4836 94.4776 63.4866 95.5402 63.1189C96.7079 62.7148 96.8607 62.252 96.8491 59.1416C96.7951 44.3321 97.1216 18.4961 97.3897 16.4391C97.9133 12.4152 97.8217 4.64118 97.2287 2.84088C96.5653 0.828256 96.0981 0.632344 92.1349 0.698415C87.3927 0.77694 87.2942 0.906161 88.3115 5.73335C88.7348 7.742 88.5256 21.2526 88.0299 23.8812C87.8767 24.6959 87.8593 28.209 87.9904 31.9526C88.2025 38.02 88.0239 47.7217 87.5205 57.4845C87.3026 61.717 87.5924 62.7715 88.9839 62.7907C89.3668 62.7964 90.4992 62.9273 91.5011 63.0834ZM90.7421 5.01608C90.742 5.80301 90.2444 5.72538 90.0226 4.90386C89.5356 3.09684 89.6667 2.95641 92.037 2.7352C94.3638 2.51879 96.0492 2.88133 95.8246 3.54973C95.7551 3.75558 95.3129 3.93102 94.8414 3.9397C94.3052 3.94832 93.8158 4.20305 93.539 4.61769C93.0386 5.36631 92.5624 5.48693 92.5624 4.86551C92.5624 4.63762 92.3583 4.28118 92.1076 4.0753C91.5386 3.60511 90.7421 4.15423 90.7421 5.01608ZM95.7605 13.6112C95.4172 17.6935 95.1696 19.0935 94.9083 18.4404C94.6162 17.7098 94.6227 10.4025 94.9149 10.4082C95.8344 10.4276 95.9813 10.9822 95.7605 13.6112ZM90.3023 28.4439C89.9619 28.7867 89.8636 28.6631 89.6968 27.6817C89.3583 25.6899 89.9735 24.6518 90.3805 26.5277C90.6398 27.7207 90.6233 28.1193 90.3023 28.4439ZM92.9109 30.7612C92.8868 29.6092 92.9811 28.7965 93.1209 28.9535C93.2605 29.1121 93.2808 30.0538 93.1651 31.0474L92.9561 32.8569L92.9109 30.7612ZM93.474 60.5528C93.4738 61.1625 92.8946 61.184 92.7056 60.5818C92.6275 60.3338 92.5011 59.9309 92.4249 59.6878C92.3488 59.4446 92.4833 58.8682 92.7254 58.4066C92.9674 57.946 93.167 56.8486 93.168 55.9686C93.1699 53.9635 93.6214 54.169 94.0852 56.3876C94.3793 57.7931 94.3591 58.2187 93.9543 59.065C93.6901 59.6175 93.474 60.2876 93.474 60.5528ZM90.4379 58.7564C90.4379 59.8581 90.3838 59.9762 90.0339 59.6289C89.7224 59.3196 89.7943 58.0786 90.1356 57.8698C90.3157 57.7596 90.4379 58.1191 90.4379 58.7564Z" fill="white"/>
<path d="M41.1032 62.8112C41.4031 63.2939 45.581 63.238 46.2638 62.743C47.0324 62.1847 47.354 59.8081 47.0059 57.2666C46.8468 56.1065 46.7195 51.6991 46.7234 47.4726C46.7272 43.2457 46.6219 38.3638 46.4898 36.6238C46.3577 34.8723 46.3705 32.9875 46.519 32.4043C47.4061 28.9149 47.4539 27.7023 47.0209 19.5953C46.587 11.4788 46.5292 5.80234 46.8599 3.73957C47.235 1.40301 43.0928 -0.103642 40.9751 1.59992L40.3055 2.13857L40.2726 16.2914C40.2494 25.8608 40.411 34.0577 40.7717 41.5961C41.1227 48.9196 41.2363 54.4171 41.1013 57.6136C40.9885 60.2885 40.9896 62.6269 41.1032 62.8112Z" fill="white"/>
<path d="M64.5727 62.1632C65.4733 62.8986 66.9196 63.0693 67.1483 62.4662C67.2264 62.2593 67.3143 59.7837 67.3442 56.9664C67.3731 54.1482 67.5205 50.9608 67.6709 49.8835C67.8204 48.8055 67.8662 43.9909 67.7717 39.1852C67.6782 34.3779 67.615 25.1812 67.6304 18.7481C67.6546 9.24193 67.5734 6.67924 67.1963 5.0647C66.853 3.59381 66.8221 3.02226 67.0795 2.86426C67.9019 2.35964 67.2617 1.21526 66.1039 1.11924C64.1994 0.962193 64.2406 0.56587 64.3071 18.5601C64.3496 29.9365 64.2496 35.9194 63.9728 38.7625C63.7202 41.3568 63.61 46.1438 63.663 52.1438L63.7459 61.4861L64.5727 62.1632Z" fill="white"/>
<path fill-rule="evenodd" clip-rule="evenodd" d="M77.1757 62.5232C78.3348 63.5546 80.962 64.0666 81.9408 63.4518C82.4486 63.1336 82.4245 63.8808 82.4399 47.9243C82.465 22.091 82.5782 5.87262 82.745 4.19968C83.0285 1.34251 82.7851 1.1015 79.7457 1.22024C76.3263 1.35334 75.6713 1.63644 75.4533 3.07654C75.002 6.06039 75.3775 24.4613 75.9995 29.8167C76.2869 32.2892 76.4416 34.9339 76.3442 35.6942C75.836 39.6779 75.5709 48.0121 75.8611 50.8823C76.0327 52.5705 76.2039 55.707 76.2415 57.8521C76.309 61.7236 76.3156 61.7572 77.1757 62.5232ZM80.5847 4.69064C80.4133 5.12715 78.2612 5.39562 77.4639 5.07967C76.555 4.71852 77.2515 3.65995 78.6043 3.34493C79.5175 3.13264 80.8422 4.03188 80.5847 4.69064ZM77.8208 24.5583C77.4412 24.9457 77.3878 24.9456 77.3819 24.5583C77.2228 13.6386 77.2762 9.54213 77.5703 9.9416C78.1315 10.7029 78.3589 24.0095 77.8208 24.5583Z" fill="white"/>
<path fill-rule="evenodd" clip-rule="evenodd" d="M51.6071 62.4035C52.8019 63.4778 56.0439 63.9403 56.8572 63.1535C56.9989 63.0156 57.106 62.5847 57.0945 62.195C57.082 61.8052 56.995 51.3156 56.9005 38.8841C56.806 26.4532 56.709 15.1978 56.6839 13.8702C56.6232 10.584 57.0349 5.27057 57.409 4.49706C58.3251 2.60865 56.4882 1.19104 53.1864 1.23988C49.8171 1.28966 50.0772 -0.368688 50.3038 19.5523C50.4118 29.024 50.4575 41.6645 50.4064 47.641C50.3061 59.117 50.4924 61.4018 51.6071 62.4035ZM52.804 10.4616C52.8069 12.614 52.397 13.4168 52.0855 11.869C51.8097 10.5034 51.8619 6.10053 52.159 5.63609C52.4714 5.14695 52.8002 7.6052 52.804 10.4616ZM54.8014 61.3355C54.52 61.3354 54.3241 61.0783 54.324 60.708C54.324 59.9736 55.0334 60.0778 55.1809 60.8334C55.2386 61.131 55.0839 61.3355 54.8014 61.3355Z" fill="white"/>
<path d="M32.6409 62.4662C32.8617 63.1734 35.7058 62.9423 36.2486 62.1725C36.8455 61.3279 36.8464 60.1465 36.2505 57.363C35.9323 55.8749 35.7976 53.8351 35.838 51.0899C35.8718 48.852 35.804 46.2746 35.6874 45.3629C35.4839 43.7685 36.0368 36.9591 36.7167 32.7054C37.2306 29.4831 37.1073 11.2745 36.5537 8.74646C36.3002 7.5861 36.0209 6.23052 35.9331 5.73335C35.5948 3.80637 34.8108 1.61242 34.4066 1.45684C33.7509 1.20787 33.0808 1.9457 33.0807 2.91663C33.0807 3.40022 32.893 4.09569 32.6654 4.46246C31.784 5.88735 31.0676 42.3688 31.8602 45.5144C32.027 46.1775 32.2449 50.1784 32.3443 54.405C32.4426 58.6318 32.5763 62.2593 32.6409 62.4662Z" fill="white"/>
<path fill-rule="evenodd" clip-rule="evenodd" d="M132.778 62.1127C133.366 61.3466 133.534 60.7677 133.537 59.4989C133.539 58.6023 133.744 55.9713 133.993 53.6513C134.513 48.8211 134.374 23.7224 133.798 18.5414C133.075 12.022 132.983 9.48984 133.406 7.73741C133.947 5.49025 133.938 4.233 133.381 3.77417C133.131 3.56733 132.926 3.21459 132.926 2.99051C132.926 1.83854 126.023 0.865399 125.364 1.92442C125.236 2.1303 125.212 9.30973 125.312 17.8784C125.509 35.0866 125.509 35.4022 125.178 51.1329C125.051 57.2068 125.018 62.3608 125.104 62.5859C125.224 62.8901 126.118 63.0067 128.642 63.045L132.021 63.0965L132.778 62.1127ZM131.38 7.08934C131.365 8.1598 130.921 9.92513 130.74 9.63954C130.054 8.55648 129.247 5.4985 129.563 5.18441C129.958 4.79295 131.392 6.29648 131.38 7.08934ZM131.409 60.4799C131.409 61.1663 130.949 60.621 130.924 59.9038C130.908 59.4478 130.736 58.3413 130.543 57.4443C130.25 56.0845 130.266 55.7312 130.634 55.3262C131.138 54.7736 131.238 54.1354 131.768 48.0758C132.106 44.2262 132.174 43.9025 132.342 45.3629C132.547 47.1469 132.201 53.9634 131.711 57.8427C131.545 59.1536 131.409 60.3401 131.409 60.4799ZM128.808 60.464C128.608 60.7876 128.333 60.7992 127.896 60.5023C127.542 60.2605 127.085 59.2268 127.332 59.2258C127.754 59.2258 128.953 60.2307 128.808 60.464Z" fill="white"/>
<path fill-rule="evenodd" clip-rule="evenodd" d="M1.96442 61.6638C1.58934 62.8394 4.77508 63.5244 6.77095 62.6962C8.01557 62.1802 8.36212 61.7608 7.96788 61.2476C7.81455 61.0475 7.66259 59.5957 7.6298 58.0204C7.597 56.446 7.36631 53.8013 7.11657 52.1438C6.28147 46.6098 6.86671 41.7466 8.36623 41.7466C9.42754 41.7464 9.57983 41.1537 8.70242 40.4318C7.93882 39.8037 7.91456 39.6704 7.7381 35.1163C7.63877 32.5471 7.42086 28.4287 7.255 25.9638C7.03128 22.6439 7.05425 20.221 7.34352 16.6206C7.5576 13.9479 7.69768 10.7432 7.65429 9.49926C7.60706 8.179 7.72383 6.95944 7.93398 6.56471C8.3361 5.81107 7.59202 3.99232 6.63252 3.38327C6.18151 3.09614 6.19624 3.0155 6.78414 2.53695C7.89114 1.63875 7.08916 1.23564 5.03725 1.65883C2.00832 2.28319 2.21013 0.312398 2.41457 27.1964C2.47821 35.5292 2.43697 35.9067 1.52088 35.4202C0.778426 35.0257 0.000130972 35.3395 0 36.0337C0 36.4359 0.267538 36.611 0.986921 36.6789L1.9729 36.7743L2.17254 41.5961C2.28246 44.2483 2.39325 47.3667 2.41833 48.5275C2.48487 51.6378 2.15922 61.0547 1.96442 61.6638ZM5.50999 59.6494C5.34042 59.7535 5.11052 59.6916 4.99864 59.5129C4.71034 59.0495 5.1054 58.7503 5.49398 59.137C5.71192 59.3534 5.71732 59.5221 5.50999 59.6494Z" fill="white"/>
<path d="M138.844 63.4126C139.758 63.854 141 63.8019 141.417 63.3041C141.687 62.9804 141.73 62.0234 141.577 59.7626C141.462 58.059 141.329 45.3411 141.28 31.5009C141.232 17.6623 141.09 5.83349 140.966 5.20966C140.77 4.24062 140.839 4.00296 141.46 3.49549C142.047 3.01765 142.12 2.80547 141.848 2.36114C141.425 1.6698 138.956 1.43719 138.451 2.04131C137.88 2.72504 137.695 12.0866 138.12 18.8425C138.333 22.24 138.493 26.512 138.475 28.3354C138.172 58.3606 138.222 63.1107 138.844 63.4126Z" fill="white"/>
<path d="M118.2 62.7953C120.001 64.7757 120.108 64.6087 119.956 60.0553C119.699 52.3349 119.863 30.4727 120.191 28.8956C120.594 26.9571 120.364 13.8208 119.843 8.97651C119.504 5.81964 119.515 5.48683 119.977 5.23116C120.97 4.67862 120.55 2.7728 119.29 2.12641C117.039 0.970964 116.809 3.39496 117.463 21.4049C117.632 26.0453 117.738 32.2157 117.699 35.1163C117.659 38.0169 117.62 43.5098 117.613 47.3221C117.605 51.1342 117.478 55.8935 117.33 57.8979L117.059 61.5413L118.2 62.7953Z" fill="white"/>
<path d="M11.407 61.8639C11.5946 62.7876 13.6 62.8332 14.4224 61.9312C14.9315 61.372 14.9473 61.129 14.6089 58.9939C14.226 56.5798 14.5971 37.778 15.1814 29.9934C15.572 24.7843 15.8549 5.92959 15.5657 4.37642C15.3526 3.23993 15.1903 3.00721 14.5608 2.9344C14.1472 2.88651 13.3049 2.63197 12.6897 2.36862C10.3013 1.34898 9.62556 2.10861 10.0613 5.31907C10.2281 6.54095 10.4075 12.2877 10.4625 18.0888C10.5618 28.7996 10.6435 30.8008 11.1961 36.1721C11.8055 42.092 11.9139 49.5663 11.423 51.8502C10.5456 55.9293 10.5421 57.5806 11.407 61.8639Z" fill="white"/>
<path d="M69.9141 50.4222C69.5255 62.7548 69.5046 62.6331 72.0754 62.454L72.9841 62.3913L73.0529 58.9247C73.0914 57.0191 73.269 51.9515 73.4474 47.6634C73.6258 43.3754 73.6945 38.7644 73.5991 37.4159C73.4342 35.0783 73.2684 27.8857 72.9907 11.032C72.8432 2.05823 72.7925 1.89039 70.6826 3.34213L69.4112 4.21744L69.6137 8.74178C69.7246 11.2306 69.9452 14.4198 70.1043 15.8285C70.2634 17.238 70.4658 19.0691 70.5545 19.8974C70.7116 21.3714 70.4005 26.3014 69.7785 32.1789C69.55 34.3352 69.5659 35.9027 69.8378 38.0714C70.1194 40.3084 70.1378 43.3081 69.9141 50.4222Z" fill="white"/>
</svg>
